<svg preserveAspectRatio="none" overflow="visible" style="display: block;" width="54" height="47" viewBox="0 0 54 47" fill="none" xmlns="http://www.w3.org/2000/svg">
<path id="Union" fill-rule="evenodd" clip-rule="evenodd" d="M33.2694 14.9251C35.815 15.6105 38.7633 12.8483 39.8547 8.75572C40.946 4.6631 39.7671 0.789763 37.2215 0.104376C34.676 -0.581011 31.7276 2.1811 30.6363 6.27373C29.545 10.3663 30.7239 14.2397 33.2694 14.9251ZM22.485 6.27374C23.5764 10.3664 22.3975 14.2397 19.8519 14.9251C17.3063 15.6105 14.358 12.8484 13.2666 8.75574C12.1753 4.66311 13.3542 0.789777 15.8998 0.10439C18.4454 -0.580997 21.3937 2.18111 22.485 6.27374ZM29.1311 43.9095C39.1064 55.4849 64.6246 31.7645 34.3431 18.5481C29.6235 16.4882 24.2259 16.4882 19.5063 18.5481C-10.7751 31.7645 14.7431 55.4849 24.7184 43.9095C25.7242 42.7424 28.1253 42.7424 29.1311 43.9095ZM7.7931 15.4109C10.1784 17.8077 10.9035 20.965 9.41271 22.463C7.9219 23.961 4.77972 23.2324 2.39444 20.8356C0.00915809 18.4388 -0.715959 15.2814 0.77484 13.7834C2.26564 12.2854 5.40783 13.0141 7.7931 15.4109ZM44.5873 22.463C46.0781 23.9611 49.2203 23.2324 51.6056 20.8356C53.9908 18.4388 54.716 15.2814 53.2252 13.7834C51.7344 12.2854 48.5922 13.0141 46.2069 15.4109C43.8216 17.8077 43.0965 20.965 44.5873 22.463Z" fill="#8F00FF" fill-opacity="0.1"/>
</svg>
